# AST/ASF file generated using VICON BodyLanguage
# -----------------------------------------------
:version 1.10
:name VICON
:units
  mass 1.0
  length 0.45
  angle deg
:documentation
   .ast/.asf automatically generated from VICON data using
   VICON BodyBuilder and BodyLanguage model FoxedUp or BRILLIANT.MOD
:root
   order TX TY TZ RX RY RZ
   axis XYZ
   position 0 0 0  
   orientation 0 0 0 
:bonedata
  begin
     id 1 
     name lhipjoint
     direction 0.528046 -0.759594 0.379717 
     length 2.39752 
     axis 0 0 0  XYZ
  end
  begin
     id 2 
     name lfemur
     direction 0.34202 -0.939693 0  
     length 7.31175  
     axis 0 0 20  XYZ
    dof rx ry rz
    limits (-160.0 20.0)
           (-70.0 70.0)
           (-60.0 70.0)
  end
  begin
     id 3 
     name ltibia
     direction 0.34202 -0.939693 0   
     length 7.52482   
     axis 0 0 20   XYZ
    dof rx
    limits (-10.0 170.0)
  end
  begin
     id 4 
     name lfoot
     direction 0.0675379 -0.185559 0.980309   
     length 2.00961   
     axis -90 7.62852e-016 20   XYZ
    dof rx rz
    limits (-45.0 90.0)
           (-70.0 20.0)
  end
  begin
     id 5 
     name ltoes
     direction 1.5352e-011 -4.22286e-011 1   
     length 1.01383   
     axis -90 7.62852e-016 20   XYZ
    dof rx
    limits (-90.0 20.0)
  end
  begin
     id 6 
     name rhipjoint
     direction -0.510274 -0.769251 0.384544   
     length 2.36742  
     axis 0 0 0  XYZ 
  end
  begin
     id 7 
     name rfemur
     direction -0.34202 -0.939693 0   
     length 7.45325   
     axis 0 0 -20   XYZ
    dof rx ry rz
    limits (-160.0 20.0)
           (-70.0 70.0)
           (-70.0 60.0)
  end
  begin
     id 8 
     name rtibia
     direction -0.34202 -0.939693 0   
     length 7.49587   
     axis 0 0 -20   XYZ
    dof rx
    limits (-10.0 170.0)
 end
 begin
     id 9 
     name rfoot
     direction -0.106475 -0.292536 0.950308   
     length 2.20898  
     axis -90 -7.62852e-016 -20   XYZ
    dof rx rz
    limits (-45.0 90.0)
           (-20.0 70.0)
  end
  begin
     id 10 
     name rtoes
     direction -1.53597e-011 -4.22023e-011 1   
     length 1.10065   
     axis -90 -7.62852e-016 -20   XYZ
    dof rx
    limits (-90.0 20.0)
  end
  begin
     id 11 
     name lowerback
     direction 0.0260024 0.998026 -0.0571652   
     length 2.11214   
     axis 0 0 0   XYZ
    dof rx ry rz
    limits (-20.0 45.0)
           (-30.0 30.0)
           (-30.0 30.0)
  end
  begin
     id 12 
     name upperback
     direction 0.0216202 0.999542 -0.0211766   
     length 2.11689   
     axis 0 0 0   XYZ
    dof rx ry rz
    limits (-20.0 45.0)
           (-30.0 30.0)
           (-30.0 30.0)
  end
  begin
     id 13 
     name thorax
     direction 0.00883312 0.999944 0.00589057   
     length 2.11821   
     axis 0 0 0   XYZ
    dof rx ry rz
    limits (-20.0 45.0)
           (-30.0 30.0)
           (-30.0 30.0)
  end
  begin
     id 14 
     name lowerneck
     direction -0.059386 0.994433 0.0870401   
     length 1.81176   
     axis 0 0 0   XYZ
    dof rx ry rz
    limits (-20.0 45.0)
           (-30.0 30.0)
           (-30.0 30.0)
  end
  begin
     id 15 
     name upperneck
     direction 0.0506457 0.97328 -0.223967   
     length 1.82382   
     axis 0 0 0   XYZ
    dof rx ry rz
    limits (-20.0 45.0)
           (-30.0 30.0)
           (-30.0 30.0)
  end
  begin
     id 16
     name head
     direction 0.0205902 0.996147 -0.0852487  
     length 1.84805  
     axis 0 0 0   XYZ
    dof rx ry rz
    limits (-20.0 45.0)
           (-30.0 30.0)
           (-30.0 30.0)
  end
  begin
     id 17 
     name lclavicle
     direction 0.949493 0.303881 -0.0782325  
     length 3.60584  
     axis 0 0 0   XYZ
    dof ry rz
    limits (-20.0 10.0)
           (0.0 20.0)
  end
  begin
     id 18 
     name lhumerus
     direction 1 -4.48965e-011 1.48782e-027   
     length 4.95681   
     axis 180 -30 -90   XYZ
    dof rx ry rz
    limits (-60.0 90.0)
           (-90.0 90.0)
           (-90.0 90.0)
  end
  begin
     id 19
     name lradius
     direction 1 -4.48952e-011 2.06528e-027   
     length 3.40915   
     axis 180 -30 -90   XYZ
    dof rx
    limits (-10.0 170.0)
  end
  begin
     id 20
     name lwrist
     direction 1 -4.48964e-011 1.28021e-027   
     length 1.70457   
     axis -1.61767e-015 90 90   XYZ
    dof ry
    limits (-180.0 0.0)
 end
  begin
     id 21 
     name lhand
     direction 1 -4.49094e-011 2.54887e-027   
     length 0.616403   
     axis -1.63363e-015 90 90   XYZ
    dof rx rz
    limits (-90.0 90.0)
           (-45.0 45.0)
  end
  begin
     id 22 
     name lfingers
     direction 1 -4.49002e-011 5.11407e-027   
     length 0.49696   
     axis -3.26723e-015 90 90   XYZ
    dof rx
    limits (0.0 90.0)
  end
  begin
     id 23
     name lthumb
     direction 0.707107 -6.34998e-011 0.707107   
     length 0.713539   
     axis -90 45 -2.25915e-014   XYZ
    dof rx rz
    limits (-45.0 45.0)
           (-45.0 45.0)
  end
  begin
     id 24 
     name rclavicle
     direction -0.937751 0.334612 -0.0930482   
     length 3.46287  
     axis 0 0 0   XYZ 
    dof ry rz
    limits (-10.0 20.0)
           (-20.0 0.0)
  end
  begin
     id 25 
     name rhumerus
     direction -1 -4.48962e-011 3.59972e-027  
     length 5.352   
     axis 180 30 90   XYZ
    dof rx ry rz
    limits (-90.0 60.0)
           (-90.0 90.0)
           (-90.0 90.0)
  end
  begin
     id 26 
     name rradius
     direction -1 -4.48987e-011 -3.76925e-027   
     length 3.43721   
     axis 180 30 90   XYZ
    dof rx
    limits (-10.0 170.0)
  end
  begin
     id 27 
     name rwrist
     direction -1 -4.48943e-011 1.28112e-027   
     length 1.7186   
     axis -1.61767e-015 -90 -90   XYZ
    dof ry
    limits (-180.0 0.0)
  end
  begin
     id 28
     name rhand
     direction -1 -4.49027e-011 2.55483e-027   
     length 0.72009   
     axis -1.63363e-015 -90 -90   XYZ
    dof rx rz
    limits (-90.0 90.0)
           (-45.0 45.0)
  end
  begin
     id 29
     name rfingers
     direction -1 -4.48827e-011 5.14506e-027   
     length 0.580555   
     axis -3.26723e-015 -90 -90   XYZ
    dof rx
    limits (0.0 90.0)
  end
  begin
     id 30
     name rthumb
     direction -0.707107 -6.34936e-011 0.707107   
     length 0.833564   
     axis -90 -45 2.25915e-014   XYZ
    dof rx rz
    limits (-45.0 45.0)
           (-45.0 45.0)
  end
:hierarchy
  begin
    root lhipjoint rhipjoint lowerback
    lhipjoint lfemur
    lfemur ltibia
    ltibia lfoot
    lfoot ltoes
    rhipjoint rfemur
    rfemur rtibia
    rtibia rfoot
    rfoot rtoes
    lowerback upperback
    upperback thorax
    thorax lowerneck lclavicle rclavicle
    lowerneck upperneck
    upperneck head
    lclavicle lhumerus
    lhumerus lradius
    lradius lwrist
    lwrist lhand lthumb
    lhand lfingers
    rclavicle rhumerus
    rhumerus rradius
    rradius rwrist
    rwrist rhand rthumb
    rhand rfingers
  end

#!OML:ASF H:\Terrain\Patient Classification 1\Terrain2\Thursday\justin.ASF
:FULLY-SPECIFIED
:DEGREES
540
root 19.911 23.7601 21.5242 73.0146 -84.9282 -69.0913
lowerback 6.35337 -0.0116419 3.08105
upperback 2.45382 0.102428 3.98919
thorax -1.03051 -0.00504089 2.37497
lowerneck -11.4849 -1.45323 -9.77365
upperneck 38.9373 -3.28212 4.82805
head 16.008 -2.75854 3.1498
rclavicle 4.17448e-015 2.38542e-015
rhumerus -33.9749 -14.2772 -78.0673
rradius 30.1679
rwrist -10.0621
rhand -20.7405 10.3775
rfingers 7.12502
rthumb 5.62487 -19.5278
lclavicle 4.17448e-015 2.38542e-015
lhumerus -34.6799 3.35608 85.048
lradius 36.4
lwrist 6.07312
lhand -19.2867 20.2981
lfingers 7.12502
lthumb 7.02841 50.1614
rfemur -18.5389 -4.71323 28.2697
rtibia 40.5716
rfoot -22.4992 -2.34163
rtoes 14.664
lfemur -13.9724 -0.382151 -13.8705
ltibia 38.6621
lfoot -21.182 -10.1699
ltoes 13.9529
541
root 19.9066 23.7558 21.5196 72.6758 -85 -68.7079
lowerback 6.542 -0.030769 2.91613
upperback 2.46918 0.0762497 4.01374
thorax -1.11958 -0.0198034 2.49581
lowerneck -11.3728 -1.37797 -9.46576
upperneck 38.8445 -3.13442 4.50948
head 15.9027 -2.68978 2.97655
rclavicle -3.18055e-015 2.06736e-014
rhumerus -33.8962 -13.7488 -78.2316
rradius 30.2904
rwrist -10.2006
rhand -20.493 10.4478
rfingers 7.12502
rthumb 5.86387 -19.451
lclavicle -3.18055e-015 2.06736e-014
lhumerus -34.823 3.40964 85.1762
lradius 36.2468
lwrist 5.87211
lhand -19.1219 20.179
lfingers 7.12502
lthumb 7.18752 50.0369
rfemur -18.5941 -4.92943 28.1952
rtibia 40.641
rfoot -22.636 -2.15313
rtoes 14.8202
lfemur -14.2144 0.0280848 -14.0241
ltibia 38.9135
lfoot -21.022 -9.6785
ltoes 11.2968
542
root 19.8984 23.7633 21.5144 72.6071 -85.0992 -68.4885
lowerback 6.55919 0.0247468 2.82509
upperback 2.5024 0.144593 3.94434
thorax -1.09671 0.0152054 2.46981
lowerneck -11.4455 -1.35981 -9.22263
upperneck 38.9116 -3.1539 4.46168
head 15.9491 -2.6689 2.9103
rclavicle -1.03368e-014 -1.74931e-014
rhumerus -33.8631 -13.6298 -78.4337
rradius 30.5783
rwrist -9.94302
rhand -20.7568 10.0815
rfingers 7.12502
rthumb 5.6092 -19.8243
lclavicle -1.03368e-014 -1.74931e-014
lhumerus -34.8305 3.21226 85.2875
lradius 36.0305
lwrist 5.65368
lhand -19.0026 20.2472
lfingers 7.12502
lthumb 7.30266 50.1011
rfemur -18.6911 -4.98967 28.1132
rtibia 40.5893
rfoot -22.6399 -2.07904
rtoes 15.6161
lfemur -14.5635 0.149125 -14.1473
ltibia 39.3132
lfoot -20.8401 -9.29699
ltoes 8.17262
543
root 19.8875 23.7686 21.5048 74.2413 -85.0142 -70.0437
lowerback 6.583 0.0937392 2.89509
upperback 2.5762 0.234815 3.99094
thorax -1.03546 0.0589323 2.47214
lowerneck -11.5306 -1.33979 -9.35645
upperneck 39.0474 -3.1425 4.59475
head 16.0451 -2.67088 2.99793
rclavicle -7.35503e-015 -2.94201e-014
rhumerus -33.7336 -13.3703 -78.6447
rradius 30.748
rwrist -10.1313
rhand -21.6622 9.64627
rfingers 7.12502
rthumb 4.73495 -20.2808
lclavicle -7.35503e-015 -2.94201e-014
lhumerus -34.8929 2.94287 85.5183
lradius 35.9003
lwrist 5.43783
lhand -19.2708 20.4832
lfingers 7.12502
lthumb 7.04374 50.346
rfemur -18.644 -4.91706 28.2972
rtibia 40.3742
rfoot -22.5453 -2.07708
rtoes 16.0319
lfemur -14.9287 0.495065 -13.97
ltibia 39.9075
lfoot -20.5022 -9.60975
ltoes 9.04492
544
root 19.8695 23.7752 21.495 77.2085 -84.686 -73.1407
lowerback 6.71234 0.0990872 3.12463
upperback 2.7505 0.242136 4.23724
thorax -0.926427 0.0565548 2.59871
lowerneck -11.6017 -1.29824 -9.72015
upperneck 39.0506 -2.98103 4.64253
head 16.0585 -2.64872 3.11163
rclavicle -5.56597e-015 -2.06736e-014
rhumerus -33.3197 -12.6753 -78.771
rradius 30.562
rwrist -10.6061
rhand -21.802 10.1553
rfingers 7.12502
rthumb 4.59997 -19.7748
lclavicle -5.56597e-015 -2.06736e-014
lhumerus -34.8911 3.10653 85.7813
lradius 35.7094
lwrist 5.22364
lhand -19.7301 20.5171
lfingers 7.12502
lthumb 6.60038 50.3942
rfemur -18.2946 -4.74675 28.7601
rtibia 40.038
rfoot -22.3912 -2.21839
rtoes 15.602
lfemur -15.1271 0.814794 -13.4794
ltibia 40.6881
lfoot -20.0683 -9.99039
ltoes 11.8711
545
root 19.8479 23.7868 21.4902 80.2125 -84.424 -76.2704
lowerback 6.81727 0.0874575 3.34215
upperback 2.92442 0.224536 4.43846
thorax -0.803304 0.0424862 2.68729
lowerneck -11.6141 -1.21008 -9.86856
upperneck 38.9162 -2.73205 4.51926
head 15.9677 -2.57388 3.12237
rclavicle 3.18055e-015 1.66979e-014
rhumerus -32.8688 -11.5896 -78.9692
rradius 30.3863
rwrist -10.8453
rhand -21.405 10.8059
rfingers 7.12502
rthumb 4.98333 -19.1155
lclavicle 3.18055e-015 1.66979e-014
lhumerus -34.8143 3.53743 85.9156
lradius 35.4031
lwrist 4.81065
lhand -19.6467 20.3971
lfingers 7.12502
lthumb 6.68087 50.2717
rfemur -17.9046 -4.54044 29.1077
rtibia 39.6764
rfoot -22.2984 -2.32198
rtoes 14.8742
lfemur -15.3384 0.96857 -13.1325
ltibia 41.5859
lfoot -19.9947 -9.53932
ltoes 9.71723
